<svg xmlns="http://www.w3.org/2000/svg" width="512" height="512" fill="none" xmlns:v="https://vecta.io/nano"><rect width="512" height="512" rx="256" fill="#000"/><path d="M86 325h24.651l.145-52.527.217-52.526 49.302 86.195 9.063.073h9.063l24.578-42.99 25.159-43.423c.362-.217.652 22.326.652 52.382V325h23.926V187l-16.458.145-16.458.216-24.796 44.29-25.086 44.652c-.217.144-11.673-19.869-25.593-44.507L119.134 187H86v138zm202.64-134.243l30.447 41.328 27.765 37.57V325H371.5v-54.766l29.94-40.75 30.52-41.617c.435-.65-2.538-.867-13.919-.867h-14.426l-21.893 29.984-22.038 29.985c-.145 0-10.005-13.511-21.893-29.985l-21.748-29.912-15.079-.072h-15.151l2.827 3.757z" fill="#fff"/></svg>